<svg width="119" height="32" viewBox="0 0 119 32" fill="none" xmlns="http://www.w3.org/2000/svg">
<path d="M1.08 29.88L0.143671 30.2311L0.147487 30.2413L0.151523 30.2514L1.08 29.88ZM1.784 17.88L2.73747 18.1815L2.73906 18.1764L1.784 17.88ZM2.712 16.536L3.25703 17.3745L3.2667 17.368L2.712 16.536ZM5.24 19.16L4.27405 18.9013L4.27189 18.9093L4.26986 18.9175L5.24 19.16ZM4.728 21.4L5.70728 21.6026L5.70858 21.5961L4.728 21.4ZM4.408 23.736L3.41211 23.6455L5.35299 24.0631L4.408 23.736ZM6.456 19.512L5.63813 18.9365L5.63107 18.9468L6.456 19.512ZM8.92 16.952L9.47471 17.7841L9.47947 17.7808L8.92 16.952ZM12.888 16.6L12.1354 17.2585L12.1467 17.2714L12.1585 17.2839L12.888 16.6ZM12.76 21.88L11.7846 21.6594L11.7838 21.6631L12.76 21.88ZM12.408 23.608L11.4216 23.4436L13.3344 23.9846L12.408 23.608ZM15.96 17.88L15.2837 17.1433L15.2837 17.1433L15.96 17.88ZM20.984 22.68L21.961 22.8934L21.9615 22.8908L20.984 22.68ZM22.808 26.872L23.4724 27.6194L23.474 27.6179L22.808 26.872ZM25.176 24.312L24.4167 23.6612L24.4089 23.6704L25.176 24.312ZM26.68 24.248L25.8162 24.7519L25.8313 24.7778L25.848 24.8027L26.68 24.248ZM26.328 27.288L25.5712 26.6344L25.5611 26.646L25.5514 26.658L26.328 27.288ZM23.352 30.072L22.7897 29.245L22.7819 29.2504L23.352 30.072ZM17.304 30.232L16.5483 30.8869L16.5538 30.8933L16.5594 30.8995L17.304 30.232ZM16.92 24.28L15.9406 24.0779L15.9384 24.0891L16.92 24.28ZM15.8 22.072L16.6088 22.6602L16.617 22.6487L15.8 22.072ZM14.264 24.888L13.3475 24.4881L13.3475 24.4881L14.264 24.888ZM13.016 28.6L12.0449 28.3612L12.043 28.3689L12.0413 28.3766L13.016 28.6ZM12.184 30.648L11.4545 29.9641L11.4427 29.9766L11.4314 29.9895L12.184 30.648ZM9.112 30.168L8.21757 30.6152L8.22606 30.6322L8.23519 30.6488L9.112 30.168ZM8.92 24.184L9.91058 24.3216L9.91228 24.308L8.92 24.184ZM7.608 22.136L8.4507 22.6744L8.4507 22.6744L7.608 22.136ZM6.168 25.08L5.23725 24.7143L5.2344 24.7216L5.23167 24.7289L6.168 25.08ZM5.08 28.6L4.10776 28.3659L4.10631 28.3721L5.08 28.6ZM4.248 30.648L3.49816 29.9864L3.49542 29.9895L4.248 30.648ZM2.808 30.16C2.58766 30.16 2.45683 30.1058 2.36323 30.0364C2.26085 29.9606 2.12943 29.811 2.00848 29.5086L0.151523 30.2514C0.371903 30.8023 0.699153 31.2927 1.17277 31.6436C1.65517 32.0009 2.21767 32.16 2.808 32.16V30.16ZM2.01633 29.5289C1.7631 28.8536 1.6 27.6411 1.6 25.784H-0.4C-0.4 27.6816 -0.243099 29.1997 0.143671 30.2311L2.01633 29.5289ZM1.6 25.784C1.6 23.1069 1.98076 20.5743 2.73746 18.1815L0.830541 17.5785C0.00857801 20.1777 -0.4 22.9145 -0.4 25.784H1.6ZM2.73906 18.1764C2.88116 17.7185 3.07455 17.493 3.25699 17.3744L2.16701 15.6976C1.49612 16.1336 1.07084 16.8041 0.828936 17.5836L2.73906 18.1764ZM3.2667 17.368C3.49047 17.2189 3.889 17.088 4.568 17.088V15.088C3.66833 15.088 2.82953 15.2558 2.1573 15.7039L3.2667 17.368ZM4.568 17.088C4.7441 17.088 4.86294 17.0993 4.93621 17.1124C5.01739 17.1269 4.99741 17.1356 4.934 17.096L5.994 15.4C5.5655 15.1322 5.0146 15.088 4.568 15.088V17.088ZM4.934 17.096C4.88601 17.066 4.84211 17.0277 4.80561 16.9836C4.76963 16.9401 4.74739 16.899 4.73436 16.8681C4.71036 16.811 4.72 16.7951 4.72 16.856H6.72C6.72 16.3921 6.58236 15.7677 5.994 15.4L4.934 17.096ZM4.72 16.856C4.72 16.9145 4.70031 17.1035 4.62102 17.484C4.54637 17.8424 4.43161 18.313 4.27405 18.9013L6.20595 19.4187C6.36839 18.8123 6.49363 18.3016 6.57898 17.892C6.6597 17.5045 6.72 17.1388 6.72 16.856H4.72ZM4.26986 18.9175C4.0539 19.7813 3.87938 20.5441 3.74742 21.2039L5.70858 21.5961C5.83262 20.9759 5.99943 20.2454 6.21014 19.4025L4.26986 18.9175ZM3.74874 21.1974C3.61035 21.8663 3.49937 22.6855 3.41211 23.6455L5.40389 23.8265C5.48729 22.9091 5.58965 22.1711 5.70726 21.6026L3.74874 21.1974ZM5.35299 24.0631C5.90701 22.4626 6.55319 21.1393 7.28093 20.0772L5.63107 18.9468C4.78014 20.1887 4.061 21.6814 3.46301 23.4089L5.35299 24.0631ZM7.27381 20.0875C8.04022 18.9984 8.77824 18.2484 9.4747 17.784L8.3653 16.1199C7.39776 16.765 6.49311 17.7216 5.63819 18.9365L7.27381 20.0875ZM9.47947 17.7808C10.2283 17.2754 10.8352 17.088 11.32 17.088V15.088C10.3115 15.088 9.31841 15.4766 8.36053 16.1232L9.47947 17.7808ZM11.32 17.088C11.9592 17.088 12.1199 17.2408 12.1354 17.2585L13.6406 15.9415C13.0588 15.2766 12.1741 15.088 11.32 15.088V17.088ZM12.1585 17.2839C12.2346 17.3652 12.368 17.5927 12.368 18.168H14.368C14.368 17.3353 14.1814 16.5175 13.6175 15.9161L12.1585 17.2839ZM12.368 18.168C12.368 18.7236 12.1922 19.8576 11.7846 21.6594L13.7354 22.1006C14.1385 20.3184 14.368 18.9778 14.368 18.168H12.368ZM11.7838 21.6631C11.6123 22.4347 11.4902 23.0321 11.4216 23.4436L13.3944 23.7724C13.4538 23.4159 13.5663 22.8613 13.7362 22.0969L11.7838 21.6631ZM13.3344 23.9846C14.3752 21.4242 15.4902 19.6688 16.6363 18.6167L15.2837 17.1433C13.8271 18.4806 12.5741 20.5438 11.4816 23.2314L13.3344 23.9846ZM16.6363 18.6167C17.8527 17.4999 18.8363 17.088 19.608 17.088V15.088C18.1184 15.088 16.67 15.8707 15.2837 17.1433L16.6363 18.6167ZM19.608 17.088C20.1472 17.088 20.3679 17.2221 20.4609 17.3151C20.5539 17.4081 20.688 17.6288 20.688 18.168H22.688C22.688 17.3205 22.4755 16.5012 21.8751 15.9009C21.2748 15.3005 20.4555 15.088 19.608 15.088V17.088ZM20.688 18.168C20.688 18.8789 20.4777 20.2843 20.0065 22.4692L21.9615 22.8908C22.4289 20.7237 22.688 19.1211 22.688 18.168H20.688ZM20.007 22.4666C19.6067 24.2999 19.376 25.6352 19.376 26.36H21.376C21.376 25.8901 21.5507 24.7721 21.961 22.8934L20.007 22.4666ZM19.376 26.36C19.376 26.8777 19.4645 27.4464 19.7984 27.907C20.1756 28.4272 20.7377 28.64 21.304 28.64V26.64C21.2636 26.64 21.276 26.6332 21.3157 26.6514C21.3609 26.6722 21.3975 26.7053 21.4176 26.733C21.4334 26.7548 21.4214 26.7488 21.406 26.6851C21.3905 26.6208 21.376 26.5161 21.376 26.36H19.376ZM21.304 28.64C22.1083 28.64 22.8457 28.1765 23.4724 27.6194L22.1436 26.1246C21.6183 26.5915 21.353 26.64 21.304 26.64V28.64ZM23.474 27.6179C24.1267 27.0352 24.9532 26.1371 25.9431 24.9536L24.4089 23.6704C23.4361 24.8336 22.684 25.6421 22.142 26.1261L23.474 27.6179ZM25.9353 24.9628C25.997 24.8907 26.0357 24.8682 26.0443 24.8638C26.0485 24.8616 26.0483 24.8622 26.0445 24.8631C26.0407 24.8641 26.0386 24.864 26.04 24.864V22.864C25.3623 22.864 24.8153 23.1963 24.4167 23.6612L25.9353 24.9628ZM26.04 24.864C26.0188 24.864 25.9596 24.8571 25.8935 24.8175C25.8306 24.7797 25.8102 24.7415 25.8162 24.7519L27.5438 23.7441C27.2302 23.2066 26.7018 22.864 26.04 22.864V24.864ZM25.848 24.8027C25.8698 24.8354 25.936 24.968 25.936 25.304H27.936C27.936 24.744 27.8316 24.1726 27.5121 23.6933L25.848 24.8027ZM25.936 25.304C25.936 26.0076 25.7693 26.405 25.5712 26.6344L27.0848 27.9416C27.6974 27.2324 27.936 26.3071 27.936 25.304H25.936ZM25.5514 26.658C24.6878 27.7225 23.7661 28.5811 22.7897 29.2451L23.9143 30.8989C25.0712 30.1122 26.1336 29.1148 27.1046 27.918L25.5514 26.658ZM22.7819 29.2504C21.9137 29.8528 20.9204 30.16 19.768 30.16V32.16C21.3036 32.16 22.6996 31.7418 23.9221 30.8936L22.7819 29.2504ZM19.768 30.16C18.8711 30.16 18.3592 29.911 18.0486 29.5645L16.5594 30.8995C17.3581 31.7904 18.4889 32.16 19.768 32.16V30.16ZM18.0597 29.5771C17.7167 29.1813 17.472 28.532 17.472 27.48H15.472C15.472 28.8173 15.782 30.0027 16.5483 30.8869L18.0597 29.5771ZM17.472 27.48C17.472 26.9915 17.6017 26.0133 17.9016 24.4709L15.9384 24.0891C15.641 25.6187 15.472 26.7738 15.472 27.48H17.472ZM17.8994 24.4821C18.1749 23.1467 18.336 22.1241 18.336 21.496H16.336C16.336 21.8919 16.2197 22.7253 15.9406 24.0779L17.8994 24.4821ZM18.336 21.496C18.336 21.2418 18.2979 20.874 18.072 20.5455C17.7997 20.1493 17.3797 19.984 16.984 19.984V21.984C16.9214 21.984 16.8182 21.9723 16.7017 21.9158C16.5805 21.857 16.4868 21.77 16.424 21.6785C16.3154 21.5206 16.336 21.4089 16.336 21.496H18.336ZM16.984 19.984C16.4466 19.984 16.0351 20.3067 15.8034 20.5197C15.5309 20.7701 15.2571 21.1071 14.983 21.4953L16.617 22.6487C16.8549 22.3116 17.0345 22.1046 17.1566 21.9923C17.2168 21.9371 17.2406 21.9257 17.2289 21.932C17.2193 21.9372 17.1311 21.984 16.984 21.984V19.984ZM14.9913 21.4838C14.4218 22.2669 13.8763 23.2762 13.3475 24.4881L15.1805 25.2879C15.6757 24.1531 16.1542 23.2851 16.6087 22.6602L14.9913 21.4838ZM13.3475 24.4881C12.8117 25.7158 12.3779 27.0073 12.0449 28.3612L13.9871 28.8388C14.2941 27.5901 14.6923 26.4068 15.1805 25.2879L13.3475 24.4881ZM12.0413 28.3766C11.8082 29.3935 11.5746 29.8359 11.4545 29.9641L12.9135 31.3319C13.4334 30.7774 13.7544 29.8545 13.9907 28.8234L12.0413 28.3766ZM11.4314 29.9895C11.4017 30.0235 11.2531 30.16 10.712 30.16V32.16C11.5362 32.16 12.369 31.9552 12.9366 31.3065L11.4314 29.9895ZM10.712 30.16C10.5229 30.16 10.4006 30.1177 10.3109 30.0621C10.2177 30.0043 10.104 29.8972 9.98881 29.6872L8.23519 30.6488C8.48268 31.1001 8.81696 31.489 9.25706 31.7619C9.7007 32.037 10.1971 32.16 10.712 32.16V30.16ZM10.0064 29.7208C9.75009 29.2081 9.6 28.5478 9.6 27.704H7.6C7.6 28.7802 7.79125 29.7626 8.21757 30.6152L10.0064 29.7208ZM9.6 27.704C9.6 26.9638 9.69888 25.8451 9.91049 24.3216L7.92951 24.0464C7.71445 25.5949 7.6 26.8229 7.6 27.704H9.6ZM9.91228 24.308C10.0812 22.9564 10.176 21.9964 10.176 21.496H8.176C8.176 21.8489 8.10011 22.6809 7.92772 24.06L9.91228 24.308ZM10.176 21.496C10.176 21.2418 10.1379 20.874 9.91204 20.5455C9.6397 20.1493 9.21968 19.984 8.824 19.984V21.984C8.76136 21.984 8.65821 21.9723 8.54173 21.9158C8.42052 21.857 8.32682 21.77 8.26396 21.6785C8.1554 21.5206 8.176 21.4089 8.176 21.496H10.176ZM8.824 19.984C8.27471 19.984 7.8535 20.2985 7.59226 20.546C7.30525 20.8179 7.03063 21.1823 6.7653 21.5976L8.4507 22.6744C8.67604 22.3217 8.84942 22.1101 8.96775 21.998C9.02522 21.9435 9.04824 21.9332 9.03589 21.9398C9.022 21.9471 8.94669 21.984 8.824 21.984V19.984ZM6.7653 21.5976C6.22886 22.4373 5.72149 23.4817 5.23725 24.7143L7.09875 25.4457C7.55317 24.2889 8.00581 23.3707 8.4507 22.6744L6.7653 21.5976ZM5.23167 24.7289C4.77041 25.9589 4.39537 27.1713 4.10778 28.3659L6.05222 28.8341C6.3193 27.7247 6.66959 26.5904 7.10433 25.4311L5.23167 24.7289ZM4.10631 28.3721C3.87585 29.3568 3.64141 29.824 3.49816 29.9864L4.99784 31.3096C5.49459 30.7466 5.81481 29.8485 6.05369 28.8279L4.10631 28.3721ZM3.49542 29.9895C3.46034 30.0296 3.31583 30.16 2.808 30.16V32.16C3.62284 32.16 4.43833 31.9491 5.00058 31.3065L3.49542 29.9895ZM39.2605 24.248L38.3967 24.7519L38.4118 24.7778L38.4285 24.8027L39.2605 24.248ZM38.9085 27.288L38.1517 26.6344L38.1438 26.6435L38.1361 26.6529L38.9085 27.288ZM35.5485 29.944L35.0607 29.071L35.0552 29.0742L35.5485 29.944ZM25.7245 29.336L26.4254 28.6228L26.4254 28.6228L25.7245 29.336ZM24.7965 20.248L25.694 20.6891L25.6968 20.6832L24.7965 20.248ZM27.3565 17.208L26.7981 16.3784L26.7907 16.3835L27.3565 17.208ZM34.0765 17.208L33.3694 17.9151L33.3745 17.9202L33.3797 17.9253L34.0765 17.208ZM33.5965 23.992L32.8894 23.2849L32.8894 23.2849L33.5965 23.992ZM28.2525 26.488L28.0138 25.5169L26.7548 25.8263L27.3739 26.9655L28.2525 26.488ZM34.5565 26.968L35.0343 27.8465L35.0396 27.8436L34.5565 26.968ZM37.7565 24.312L36.9972 23.6612L36.9908 23.6687L36.9846 23.6763L37.7565 24.312ZM28.5405 20.6L27.6848 20.0826L27.6803 20.0899L27.676 20.0974L28.5405 20.6ZM27.7405 23.992H26.7405V25.2571L27.9714 24.965L27.7405 23.992ZM30.7165 22.648L30.0808 21.8761L30.0808 21.8761L30.7165 22.648ZM31.4525 19.608L30.6843 20.2482L30.7133 20.283L30.7454 20.3151L31.4525 19.608ZM38.6205 24.864C38.5993 24.864 38.5401 24.8571 38.474 24.8175C38.4111 24.7797 38.3907 24.7415 38.3967 24.7519L40.1243 23.7441C39.8107 23.2066 39.2823 22.864 38.6205 22.864V24.864ZM38.4285 24.8027C38.4503 24.8354 38.5165 24.968 38.5165 25.304H40.5165C40.5165 24.744 40.4121 24.1726 40.0925 23.6933L38.4285 24.8027ZM38.5165 25.304C38.5165 26.0076 38.3498 26.405 38.1517 26.6344L39.6653 27.9416C40.2779 27.2324 40.5165 26.3071 40.5165 25.304H38.5165ZM38.1361 26.6529C37.4477 27.4901 36.437 28.3019 35.0607 29.0711L36.0363 30.8169C37.5613 29.9647 38.7906 29.0059 39.6809 27.9231L38.1361 26.6529ZM35.0552 29.0742C33.7762 29.7995 32.4102 30.16 30.9405 30.16V32.16C32.7562 32.16 34.4621 31.7098 36.0418 30.8138L35.0552 29.0742ZM30.9405 30.16C28.8831 30.16 27.4258 29.6059 26.4254 28.6228L25.0236 30.0492C26.4979 31.4981 28.5179 32.16 30.9405 32.16V30.16ZM26.4254 28.6228C25.4197 27.6344 24.8685 26.2501 24.8685 24.344H22.8685C22.8685 26.6619 23.5546 28.6056 25.0236 30.0492L26.4254 28.6228ZM24.8685 24.344C24.8685 23.0172 25.1461 21.8037 25.6939 20.6891L23.8991 19.8069C23.2096 21.2096 22.8685 22.7268 22.8685 24.344H24.8685ZM25.6968 20.6832C26.2458 19.5473 26.9889 18.6731 27.9223 18.0325L26.7907 16.3835C25.5481 17.2362 24.5845 18.3887 23.8962 19.8128L25.6968 20.6832ZM27.9149 18.0376C28.8528 17.4063 29.905 17.088 31.1005 17.088V15.088C29.5227 15.088 28.0788 15.5164 26.7981 16.3784L27.9149 18.0376ZM31.1005 17.088C32.1217 17.088 32.8424 17.3881 33.3694 17.9151L34.7836 16.5009C33.8173 15.5346 32.5539 15.088 31.1005 15.088V17.088ZM33.3797 17.9253C33.893 18.4239 34.1965 19.135 34.1965 20.184H36.1965C36.1965 18.7157 35.7533 17.4428 34.7733 16.4907L33.3797 17.9253ZM34.1965 20.184C34.1965 21.3835 33.7737 22.4006 32.8894 23.2849L34.3036 24.6991C35.5526 23.4501 36.1965 21.9285 36.1965 20.184H34.1965ZM32.8894 23.2849C32.0375 24.1367 30.4702 24.9132 28.0138 25.5169L28.4912 27.4591C31.0694 26.8255 33.0648 25.9379 34.3036 24.6991L32.8894 23.2849ZM27.3739 26.9655C28.141 28.3769 29.5748 28.96 31.2925 28.96V26.96C30.0236 26.96 29.4307 26.5617 29.1311 26.0105L27.3739 26.9655ZM31.2925 28.96C32.4769 28.96 33.7322 28.5546 35.0343 27.8465L34.0787 26.0895C32.9488 26.7041 32.0281 26.96 31.2925 26.96V28.96ZM35.0396 27.8436C36.3872 27.1001 37.5519 26.1334 38.5284 24.9477L36.9846 23.6763C36.1691 24.6666 35.2005 25.4706 34.0734 26.0924L35.0396 27.8436ZM38.5158 24.9628C38.5775 24.8907 38.6162 24.8682 38.6248 24.8638C38.629 24.8616 38.6288 24.8622 38.625 24.8631C38.6212 24.8641 38.6191 24.864 38.6205 24.864V22.864C37.9428 22.864 37.3958 23.1963 36.9972 23.6612L38.5158 24.9628ZM30.5565 18.224C29.2964 18.224 28.3479 18.9859 27.6848 20.0826L29.3962 21.1174C29.8425 20.3794 30.2379 20.224 30.5565 20.224V18.224ZM27.676 20.0974C27.0359 21.1984 26.7405 22.4899 26.7405 23.928H28.7405C28.7405 22.7635 28.9785 21.8363 29.405 21.1026L27.676 20.0974ZM26.7405 23.928V23.992H28.7405V23.928H26.7405ZM27.9714 24.965C29.3257 24.6436 30.4733 24.1437 31.3522 23.4199L30.0808 21.8761C29.509 22.3469 28.6726 22.7431 27.5096 23.019L27.9714 24.965ZM31.3522 23.4199C32.2595 22.6727 32.8045 21.714 32.8045 20.568H30.8045C30.8045 21.0007 30.6241 21.4286 30.0808 21.8761L31.3522 23.4199ZM32.8045 20.568C32.8045 19.9599 32.6218 19.3631 32.1596 18.9009L30.7454 20.3151C30.7525 20.3222 30.8045 20.3654 30.8045 20.568H32.8045ZM32.2207 18.9678C31.7873 18.4477 31.1868 18.224 30.5565 18.224V20.224C30.6373 20.224 30.6702 20.2373 30.6746 20.2391C30.6772 20.2403 30.6772 20.2405 30.6765 20.24C30.6759 20.2395 30.6786 20.2413 30.6843 20.2482L32.2207 18.9678ZM39.087 13.368L38.3973 14.0921L38.4066 14.101L38.4161 14.1095L39.087 13.368ZM39.279 9.752L39.9275 10.5132L39.9298 10.5113L39.279 9.752ZM43.407 9.56L42.7907 10.3475L43.407 9.56ZM43.311 13.24L43.9736 13.989L43.9815 13.982L43.9893 13.9748L43.311 13.24ZM37.807 29.688L36.9611 30.2213L36.9652 30.2278L36.9694 30.2343L37.807 29.688ZM37.231 22.104L36.2449 21.9373L36.2431 21.9488L37.231 22.104ZM38.191 17.88L39.1502 18.163L39.1537 18.1507L38.191 17.88ZM41.519 20.888L42.4961 21.1012L42.4979 21.0924L41.519 20.888ZM43.311 26.84L42.6316 26.1062L42.6316 26.1062L43.311 26.84ZM45.615 24.312L44.8557 23.6611L44.8468 23.6718L45.615 24.312ZM47.119 24.248L46.2552 24.7519L46.2703 24.7778L46.287 24.8027L47.119 24.248ZM46.767 27.288L46.0102 26.6344L46.0015 26.6445L45.993 26.6548L46.767 27.288ZM41.103 12.976C40.3378 12.976 39.9506 12.8008 39.7579 12.6265L38.4161 14.1095C39.1194 14.7459 40.0762 14.976 41.103 14.976V12.976ZM39.7767 12.6439C39.567 12.4442 39.415 12.142 39.415 11.608H37.415C37.415 12.5674 37.711 13.4384 38.3973 14.0921L39.7767 12.6439ZM39.415 11.608C39.415 11.1588 39.5711 10.8168 39.9275 10.5132L38.6305 8.99076C37.8349 9.66849 37.415 10.5638 37.415 11.608H39.415ZM39.9298 10.5113C40.3253 10.1722 40.8225 9.984 41.487 9.984V7.984C40.4022 7.984 39.4274 8.30776 38.6282 8.99274L39.9298 10.5113ZM41.487 9.984C42.1135 9.984 42.5184 10.1344 42.7907 10.3475L44.0233 8.77249C43.3143 8.21763 42.4392 7.984 41.487 7.984V9.984ZM42.7907 10.3475C43.0055 10.5156 43.143 10.7501 43.143 11.192H45.143C45.143 10.2259 44.7898 9.37235 44.0233 8.77249L42.7907 10.3475ZM43.143 11.192C43.143 11.8064 42.9545 12.2082 42.6327 12.5052L43.9893 13.9748C44.7768 13.2478 45.143 12.2842 45.143 11.192H43.143ZM42.6484 12.491C42.3174 12.7838 41.8369 12.976 41.103 12.976V14.976C42.2038 14.976 43.1953 14.6775 43.9736 13.989L42.6484 12.491ZM40.847 30.16C39.7264 30.16 39.0639 29.7847 38.6446 29.1417L36.9694 30.2343C37.8301 31.554 39.1943 32.16 40.847 32.16V30.16ZM38.6529 29.1547C38.1674 28.3846 37.879 27.2885 37.879 25.784H35.879C35.879 27.5222 36.2093 29.0288 36.9611 30.2213L38.6529 29.1547ZM37.879 25.784C37.879 24.8967 37.9883 23.7268 38.2189 22.2592L36.2431 21.9488C36.0044 23.4679 35.879 24.7513 35.879 25.784H37.879ZM38.217 22.2706C38.4672 20.7902 38.7788 19.4215 39.1501 18.163L37.2319 17.597C36.8352 18.9411 36.5068 20.3884 36.245 21.9373L38.217 22.2706ZM39.1537 18.1507C39.3259 17.5384 39.5081 17.3134 39.5837 17.2529L38.3343 15.6911C37.7699 16.1426 37.4401 16.8563 37.2283 17.6093L39.1537 18.1507ZM39.5837 17.2529C39.638 17.2094 39.8705 17.088 40.495 17.088V15.088C39.7115 15.088 38.92 15.2226 38.3343 15.6911L39.5837 17.2529ZM40.495 17.088C40.7146 17.088 40.8769 17.1066 40.9921 17.1322C41.1076 17.1579 41.1552 17.186 41.1643 17.192C41.1667 17.1937 41.1462 17.1785 41.1306 17.1472C41.117 17.1201 41.127 17.1203 41.127 17.176H43.127C43.127 16.522 42.8579 15.9174 42.2737 15.5279C41.7611 15.1862 41.1185 15.088 40.495 15.088V17.088ZM41.127 17.176C41.127 17.584 40.9524 18.7091 40.5401 20.6836L42.4979 21.0924C42.8963 19.1842 43.127 17.8347 43.127 17.176H41.127ZM40.542 20.6748C40.0333 23.0064 39.751 24.6992 39.751 25.656H41.751C41.751 24.9488 41.9807 23.4629 42.496 21.1012L40.542 20.6748ZM39.751 25.656C39.751 26.3593 39.8406 27.0312 40.1126 27.5752L41.9014 26.6808C41.8321 26.5421 41.751 26.2327 41.751 25.656H39.751ZM40.1126 27.5752C40.2714 27.893 40.5097 28.1759 40.8412 28.3723C41.1691 28.5666 41.5268 28.64 41.871 28.64V26.64C41.8396 26.64 41.8268 26.6367 41.828 26.637C41.8302 26.6375 41.843 26.6412 41.8608 26.6517C41.8789 26.6624 41.893 26.6748 41.9018 26.6848C41.9101 26.694 41.9086 26.6951 41.9014 26.6808L40.1126 27.5752ZM41.871 28.64C42.6651 28.64 43.3935 28.1265 43.9904 27.5738L42.6316 26.1062C42.3795 26.3397 42.1806 26.4841 42.0334 26.5658C41.8819 26.65 41.8355 26.64 41.871 26.64V28.64ZM43.9904 27.5738C44.6147 26.9957 45.4157 26.1133 46.3832 24.9522L44.8468 23.6718C43.8943 24.8147 43.1593 25.6176 42.6316 26.1062L43.9904 27.5738ZM46.3743 24.9628C46.436 24.8907 46.4747 24.8682 46.4833 24.8638C46.4875 24.8616 46.4873 24.8622 46.4835 24.8631C46.4797 24.8641 46.4776 24.864 46.479 24.864V22.864C45.8013 22.864 45.2543 23.1963 44.8557 23.6612L46.3743 24.9628ZM46.479 24.864C46.4578 24.864 46.3986 24.8571 46.3325 24.8175C46.2696 24.7797 46.2492 24.7415 46.2552 24.7519L47.9828 23.7441C47.6692 23.2066 47.1408 22.864 46.479 22.864V24.864ZM46.287 24.8027C46.3088 24.8354 46.375 24.968 46.375 25.304H48.375C48.375 24.744 48.2706 24.1726 47.9511 23.6933L46.287 24.8027ZM46.375 25.304C46.375 26.0076 46.2083 26.405 46.0102 26.6344L47.5238 27.9416C48.1364 27.2324 48.375 26.3071 48.375 25.304H46.375ZM45.993 26.6548C43.9253 29.182 42.2097 30.16 40.847 30.16V32.16C43.1536 32.16 45.3847 30.5566 47.541 27.9212L45.993 26.6548ZM48.178 31.096L47.5136 31.8434L47.5204 31.8494L47.5272 31.8553L48.178 31.096ZM47.922 27.928L48.6291 28.6351L48.6291 28.6351L47.922 27.928ZM50.674 27.416L50.5002 28.4008L50.5317 28.4063L50.5636 28.4099L50.674 27.416ZM51.538 27.512L51.4276 28.5059L52.5819 28.6341L52.5373 27.4736L51.538 27.512ZM51.154 25.944L50.2369 26.3427L50.2441 26.3592L50.2519 26.3755L51.154 25.944ZM50.322 24.536L49.5133 25.1242L49.5198 25.1332L49.5266 25.142L50.322 24.536ZM49.362 23.32L50.1146 22.6615L49.1547 21.5645L48.4768 22.8549L49.362 23.32ZM47.378 26.456L46.5952 25.8338L46.5902 25.84L46.5854 25.8463L47.378 26.456ZM45.266 28.824L44.5689 28.1069L44.5589 28.1169L45.266 28.824ZM43.218 29.048L42.4498 29.6882L42.4636 29.7047L42.4781 29.7207L43.218 29.048ZM43.346 26.936L44.1179 27.5717L44.1221 27.5666L43.346 26.936ZM43.762 26.424L44.5381 27.0546L44.5395 27.0529L43.762 26.424ZM46.418 22.84L47.2617 23.3769L47.2715 23.3615L47.2807 23.3457L46.418 22.84ZM47.698 20.376L48.5998 20.8081L48.6032 20.8009L47.698 20.376ZM49.138 17.144L48.2199 16.7476L48.217 16.7544L49.138 17.144ZM52.914 15.896L53.3278 14.9856L53.3278 14.9856L52.914 15.896ZM53.138 17.016L54.0938 17.3101L54.0938 17.3101L53.138 17.016ZM52.786 17.848L51.9055 17.3739L51.8983 17.3872L51.8916 17.4008L52.786 17.848ZM52.53 20.856L51.6558 21.3416L51.6659 21.3598L51.6767 21.3775L52.53 20.856ZM53.586 22.296L54.3814 21.69L54.3715 21.677L54.3612 21.6643L53.586 22.296ZM55.122 24.6L54.2396 25.0706L54.2491 25.0884L54.2593 25.1057L55.122 24.6ZM55.602 27.544L54.6081 27.4336L54.426 29.0725L55.9635 28.4764L55.602 27.544ZM59.282 24.312L58.5227 23.6612L58.5127 23.6729L58.503 23.685L59.282 24.312ZM60.786 24.248L59.9222 24.7519L59.9373 24.7778L59.954 24.8027L60.786 24.248ZM60.434 27.288L61.2124 27.9158L61.218 27.9087L60.434 27.288ZM57.362 30.008L57.8012 30.9064L57.8092 30.9024L57.362 30.008ZM53.778 30.776L53.7482 29.7764L53.3976 29.7869L53.1304 30.0141L53.778 30.776ZM50.738 30.864C49.7705 30.864 49.1828 30.6402 48.8288 30.3367L47.5272 31.8553C48.3678 32.5758 49.4868 32.864 50.738 32.864V30.864ZM48.8424 30.3486C48.4324 29.9841 48.314 29.6644 48.314 29.368H46.314C46.314 30.3516 46.7716 31.1839 47.5136 31.8434L48.8424 30.3486ZM48.314 29.368C48.314 29.0883 48.4043 28.8599 48.6291 28.6351L47.2149 27.2209C46.629 27.8067 46.314 28.5384 46.314 29.368H48.314ZM48.6291 28.6351C48.7853 28.4789 49.0878 28.32 49.714 28.32V26.32C48.7616 26.32 47.8694 26.5664 47.2149 27.2209L48.6291 28.6351ZM49.714 28.32C49.9177 28.32 50.1775 28.3438 50.5002 28.4008L50.8478 26.4312C50.4451 26.3602 50.0649 26.32 49.714 26.32V28.32ZM50.5636 28.4099C50.9476 28.4526 51.2356 28.4846 51.4276 28.5059L51.6484 26.5181C51.4564 26.4968 51.1684 26.4648 50.7844 26.4221L50.5636 28.4099ZM52.5373 27.4736C52.5108 26.7855 52.3509 26.1288 52.0561 25.5125L50.2519 26.3755C50.4265 26.7405 50.5225 27.1291 50.5387 27.5504L52.5373 27.4736ZM52.0711 25.5453C51.824 24.9771 51.5049 24.4386 51.1174 23.93L49.5266 25.142C49.8217 25.5294 50.0573 25.9296 50.2369 26.3427L52.0711 25.5453ZM51.1307 23.9478C50.7764 23.4605 50.4376 23.0306 50.1146 22.6615L48.6094 23.9785C48.8838 24.292 49.185 24.6728 49.5133 25.1242L51.1307 23.9478ZM48.4768 22.8549C47.8355 24.0754 47.207 25.064 46.5952 25.8338L48.1608 27.0782C48.8717 26.184 49.5659 25.082 50.2472 23.7851L48.4768 22.8549ZM46.5854 25.8463C45.9752 26.6395 45.3032 27.3931 44.5689 28.107L45.9631 29.541C46.7648 28.7616 47.5008 27.9365 48.1706 27.0657L46.5854 25.8463ZM44.5589 28.1169C44.3087 28.3671 44.1441 28.4 44.05 28.4V30.4C44.8092 30.4 45.4553 30.0489 45.9731 29.5311L44.5589 28.1169ZM44.05 28.4C44.022 28.4 44.0033 28.3976 43.9923 28.3955C43.9816 28.3935 43.9767 28.3915 43.9756 28.391C43.9747 28.3906 43.9742 28.3904 43.9729 28.3895C43.9715 28.3884 43.9664 28.3846 43.9579 28.3753L42.4781 29.7207C42.8966 30.181 43.451 30.4 44.05 30.4V28.4ZM43.9862 28.4078C43.9363 28.3479 43.898 28.2709 43.898 28.12H41.898C41.898 28.6944 42.0731 29.2361 42.4498 29.6882L43.9862 28.4078ZM43.898 28.12C43.898 27.9491 43.9508 27.7747 44.1179 27.5717L42.5741 26.3003C42.1439 26.8227 41.898 27.4375 41.898 28.12H43.898ZM44.1221 27.5666L44.5381 27.0546L42.9859 25.7934L42.5699 26.3054L44.1221 27.5666ZM44.5395 27.0529C45.723 25.5896 46.635 24.3616 47.2617 23.3769L45.5743 22.3031C45.0063 23.1958 44.1476 24.3571 42.9845 25.7951L44.5395 27.0529ZM47.2807 23.3457C47.6631 22.6935 48.1032 21.8446 48.5998 20.8081L46.7962 19.9439C46.3115 20.9554 45.8983 21.7492 45.5553 22.3343L47.2807 23.3457ZM48.6032 20.8009C49.0996 19.7434 49.5848 18.6543 50.059 17.5336L48.217 16.7544C47.7525 17.8523 47.2777 18.9179 46.7928 19.9511L48.6032 20.8009ZM50.0561 17.5404C50.177 17.2604 50.3437 17.0824 50.5606 16.9616C50.7923 16.8326 51.1425 16.736 51.666 16.736V14.736C50.9095 14.736 50.1984 14.8741 49.5874 15.2144C48.9616 15.5629 48.5043 16.089 48.2199 16.7476L50.0561 17.5404ZM51.666 16.736C51.9384 16.736 52.1465 16.7484 52.2988 16.7679C52.4616 16.7887 52.5127 16.812 52.5002 16.8064L53.3278 14.9856C52.8778 14.7811 52.266 14.736 51.666 14.736V16.736ZM52.5002 16.8064C52.4923 16.8028 52.4207 16.7676 52.354 16.6705C52.2832 16.5676 52.266 16.4651 52.266 16.408H54.266C54.266 16.1163 54.1902 15.8111 54.002 15.5375C53.818 15.2698 53.5704 15.0959 53.3278 14.9856L52.5002 16.8064ZM52.266 16.408C52.266 16.3737 52.2701 16.3804 52.2555 16.45C52.2423 16.5125 52.2192 16.6017 52.1822 16.7219L54.0938 17.3101C54.1809 17.027 54.266 16.699 54.266 16.408H52.266ZM52.1822 16.7219C52.1176 16.9319 52.0266 17.1491 51.9055 17.3739L53.6665 18.3221C53.8441 17.9922 53.9877 17.6548 54.0938 17.3101L52.1822 16.7219ZM51.8916 17.4008C51.4758 18.2323 51.21 19.0448 51.21 19.8H53.21C53.21 19.4886 53.3282 18.9997 53.6804 18.2952L51.8916 17.4008ZM51.21 19.8C51.21 20.3416 51.3893 20.8619 51.6558 21.3416L53.4042 20.3704C53.244 20.0821 53.21 19.8984 53.21 19.8H51.21ZM51.6767 21.3775C51.945 21.8165 52.3287 22.3361 52.8108 22.9277L54.3612 21.6643C53.9046 21.1039 53.5843 20.6635 53.3833 20.3345L51.6767 21.3775ZM52.7906 22.902C53.4564 23.7759 53.9334 24.4964 54.2396 25.0706L56.0044 24.1294C55.6279 23.4236 55.081 22.6081 54.3814 21.69L52.7906 22.902ZM54.2593 25.1057C54.5283 25.5646 54.666 26.0715 54.666 26.648H56.666C56.666 25.7312 56.4411 24.8728 55.9847 24.0943L54.2593 25.1057ZM54.666 26.648C54.666 26.8062 54.6494 27.062 54.6081 27.4336L56.5959 27.6544C56.6399 27.258 56.666 26.9165 56.666 26.648H54.666ZM55.9635 28.4764C57.2679 27.9706 58.633 26.7133 60.061 24.939L58.503 23.685C57.115 25.4094 56.0268 26.3068 55.2405 26.6116L55.9635 28.4764ZM60.0413 24.9628C60.103 24.8907 60.1417 24.8682 60.1503 24.8638C60.1545 24.8616 60.1543 24.8622 60.1505 24.8631C60.1467 24.8641 60.1446 24.864 60.146 24.864V22.864C59.4683 22.864 58.9213 23.1963 58.5227 23.6612L60.0413 24.9628ZM60.146 24.864C60.1248 24.864 60.0656 24.8571 59.9995 24.8175C59.9366 24.7797 59.9162 24.7415 59.9222 24.7519L61.6498 23.7441C61.3362 23.2066 60.8078 22.864 60.146 22.864V24.864ZM59.954 24.8027C59.9758 24.8354 60.042 24.968 60.042 25.304H62.042C62.042 24.744 61.9376 24.1726 61.6181 23.6933L59.954 24.8027ZM60.042 25.304C60.042 25.9451 59.8844 26.3712 59.65 26.6673L61.218 27.9087C61.7943 27.1808 62.042 26.2843 62.042 25.304H60.042ZM59.6556 26.6602C58.6345 27.9264 57.7169 28.7125 56.9148 29.1136L57.8092 30.9024C58.9698 30.3222 60.1001 29.295 61.2124 27.9158L59.6556 26.6602ZM56.9228 29.1096C56.126 29.4992 55.081 29.7367 53.7482 29.7764L53.8078 31.7756C55.3337 31.73 56.678 31.4555 57.8012 30.9064L56.9228 29.1096ZM53.1304 30.0141C52.467 30.5779 51.6863 30.864 50.738 30.864V32.864C52.1363 32.864 53.3824 32.4247 54.4256 31.5379L53.1304 30.0141ZM76.8423 24.248L75.9785 24.7519L75.9936 24.7778L76.0102 24.8027L76.8423 24.248ZM76.4903 27.288L77.2455 27.9435L77.2471 27.9416L76.4903 27.288ZM73.4503 30.072L72.8801 29.2504L72.8722 29.256L73.4503 30.072ZM67.4663 30.232L66.7106 30.8869L66.7161 30.8933L66.7217 30.8995L67.4663 30.232ZM67.0823 24.28L66.1028 24.0779L66.1006 24.0891L67.0823 24.28ZM65.9623 22.072L66.7711 22.6602L66.7792 22.6487L65.9623 22.072ZM64.4263 24.888L65.3428 25.2879L65.3428 25.2879L64.4263 24.888ZM63.1783 28.6L62.2071 28.3612L62.2053 28.3689L63.1783 28.6ZM58.8903 30.488L57.9647 30.8666L57.9753 30.8926L57.9874 30.9179L58.8903 30.488ZM58.6343 26.36L59.6329 26.4126L59.6339 26.3925L59.6342 26.3725L58.6343 26.36ZM58.6663 23.8L59.6663 23.8125V23.8H58.6663ZM59.6583 13.528L58.6761 13.3398L58.675 13.3455L59.6583 13.528ZM62.6343 4.568L61.7558 4.09022L61.7543 4.09297L62.6343 4.568ZM69.7383 2.2L68.919 2.77346L68.9272 2.7852L68.9358 2.7967L69.7383 2.2ZM68.7783 12.184L69.6558 12.6634L69.6577 12.66L68.7783 12.184ZM62.6343 20.28L61.8973 19.604L61.6564 19.8667L61.6359 20.2224L62.6343 20.28ZM62.5383 23.704H61.5383L63.4705 24.0659L62.5383 23.704ZM64.8743 19.288L64.0778 18.6833L64.0761 18.6856L64.8743 19.288ZM67.4343 16.824L66.9357 15.957L66.9263 15.9626L67.4343 16.824ZM71.1463 22.68L72.1232 22.8934L72.1238 22.8908L71.1463 22.68ZM72.9703 26.872L73.6346 27.6194L73.6363 27.6179L72.9703 26.872ZM75.3383 24.312L74.5789 23.6612L74.5712 23.6704L75.3383 24.312ZM65.4183 5.752L66.3365 6.1481L66.3392 6.14164L65.4183 5.752ZM64.0423 10.2L63.0695 9.96787L63.0677 9.97596L64.0423 10.2ZM62.9863 16.28L61.9941 16.1548L61.5734 19.4883L63.7484 16.9273L62.9863 16.28ZM66.2503 11.192L65.3475 10.7616L65.3435 10.7703L66.2503 11.192ZM67.3383 4.632L68.2629 4.25125L68.2629 4.25125L67.3383 4.632ZM76.2023 24.864C76.181 24.864 76.1218 24.8571 76.0558 24.8175C75.9928 24.7797 75.9724 24.7415 75.9785 24.7519L77.706 23.7441C77.3925 23.2066 76.8641 22.864 76.2023 22.864V24.864ZM76.0102 24.8027C76.032 24.8354 76.0983 24.968 76.0983 25.304H78.0983C78.0983 24.744 77.9938 24.1726 77.6743 23.6933L76.0102 24.8027ZM76.0983 25.304C76.0983 26.0076 75.9316 26.405 75.7334 26.6344L77.2471 27.9416C77.8596 27.2324 78.0983 26.3071 78.0983 25.304H76.0983ZM75.735 26.6325C74.7989 27.7111 73.8463 28.58 72.8802 29.2504L74.0203 30.8936C75.1448 30.1133 76.2189 29.1263 77.2455 27.9435L75.735 26.6325ZM72.8722 29.256C72.0266 29.8549 71.0577 30.16 69.9303 30.16V32.16C71.4481 32.16 72.8259 31.7397 74.0283 30.888L72.8722 29.256ZM69.9303 30.16C69.0334 30.16 68.5215 29.911 68.2108 29.5645L66.7217 30.8995C67.5203 31.7904 68.6511 32.16 69.9303 32.16V30.16ZM68.2219 29.5771C67.8789 29.1813 67.6343 28.532 67.6343 27.48H65.6343C65.6343 28.8173 65.9442 30.0027 66.7106 30.8869L68.2219 29.5771ZM67.6343 27.48C67.6343 26.9915 67.764 26.0133 68.0639 24.4709L66.1006 24.0891C65.8032 25.6187 65.6343 26.7738 65.6343 27.48H67.6343ZM68.0616 24.4821C68.3372 23.1467 68.4983 22.1241 68.4983 21.496H66.4983C66.4983 21.8919 66.382 22.7253 66.1029 24.0779L68.0616 24.4821ZM68.4983 21.496C68.4983 21.2418 68.4602 20.874 68.2343 20.5455C67.962 20.1493 67.5419 19.984 67.1463 19.984V21.984C67.0836 21.984 66.9805 21.9723 66.864 21.9158C66.7428 21.857 66.6491 21.77 66.5862 21.6785C66.4776 21.5206 66.4983 21.4089 66.4983 21.496H68.4983ZM67.1463 19.984C66.6089 19.984 66.1974 20.3067 65.9656 20.5197C65.6931 20.7701 65.4193 21.1071 65.1453 21.4953L66.7792 22.6487C67.0172 22.3116 67.1967 22.1046 67.3189 21.9923C67.379 21.9371 67.4028 21.9257 67.3912 21.932C67.3815 21.9372 67.2934 21.984 67.1463 21.984V19.984ZM65.1535 21.4838C64.584 22.2669 64.0385 23.2762 63.5097 24.4881L65.3428 25.2879C65.838 24.1531 66.3165 23.2851 66.771 22.6602L65.1535 21.4838ZM63.5097 24.4881C62.974 25.7158 62.5401 27.0073 62.2072 28.3612L64.1493 28.8388C64.4564 27.5901 64.8545 26.4068 65.3428 25.2879L63.5097 24.4881ZM62.2053 28.3689C62.0356 29.0835 61.7673 29.5089 61.4741 29.7585C61.1904 29.9999 60.786 30.16 60.1703 30.16V32.16C61.1545 32.16 62.0514 31.8934 62.7704 31.2815C63.4798 30.6777 63.9156 29.8232 64.1512 28.8311L62.2053 28.3689ZM60.1703 30.16C59.9611 30.16 59.8658 30.1227 59.8351 30.1066C59.8212 30.0993 59.8163 30.0944 59.8144 30.0923C59.8122 30.0901 59.8041 30.0812 59.7931 30.0581L57.9874 30.9179C58.4171 31.8204 59.2781 32.16 60.1703 32.16V30.16ZM59.8158 30.1094C59.7055 29.8397 59.6023 29.1861 59.6023 27.992H57.6023C57.6023 29.1872 57.691 30.1976 57.9647 30.8666L59.8158 30.1094ZM59.6023 27.992C59.6023 27.3168 59.6129 26.7926 59.6329 26.4126L57.6356 26.3074C57.613 26.7381 57.6023 27.3019 57.6023 27.992H59.6023ZM59.6342 26.3725L59.6662 23.8125L57.6663 23.7875L57.6343 26.3475L59.6342 26.3725ZM59.6663 23.8C59.6663 20.5818 59.9902 17.2191 60.6415 13.7105L58.675 13.3455C58.0037 16.9623 57.6663 20.4476 57.6663 23.8H59.6663ZM60.6404 13.7162C61.3097 10.2233 62.2742 7.34014 63.5142 5.04303L61.7543 4.09297C60.3916 6.61719 59.3722 9.70732 58.6761 13.3398L60.6404 13.7162ZM63.5127 5.04577C64.758 2.75601 66.0689 1.92 67.3703 1.92V-0.0800018C65.0023 -0.0800018 63.1558 1.51599 61.7558 4.09023L63.5127 5.04577ZM67.3703 1.92C68.0023 1.92 68.4952 2.16806 68.919 2.77346L70.5575 1.62654C69.7866 0.525269 68.7009 -0.0800018 67.3703 -0.0800018V1.92ZM68.9358 2.7967C69.3927 3.41121 69.6663 4.27116 69.6663 5.464H71.6663C71.6663 3.96884 71.3211 2.65279 70.5407 1.6033L68.9358 2.7967ZM69.6663 5.464C69.6663 7.41873 69.0961 9.496 67.8988 11.708L69.6577 12.66C70.9777 10.2213 71.6663 7.8186 71.6663 5.464H69.6663ZM67.9007 11.7046C66.6967 13.9084 64.7084 16.5393 61.8973 19.604L63.3712 20.956C66.2348 17.834 68.3424 15.0676 69.6558 12.6634L67.9007 11.7046ZM61.6359 20.2224C61.5707 21.3519 61.5383 22.5125 61.5383 23.704H63.5383C63.5383 22.5488 63.5698 21.4267 63.6326 20.3376L61.6359 20.2224ZM63.4705 24.0659C64.1526 22.309 64.891 20.9258 65.6724 19.8904L64.0761 18.6856C63.1509 19.9115 62.3319 21.4724 61.606 23.3421L63.4705 24.0659ZM65.6707 19.8927C66.5022 18.7976 67.2634 18.0857 67.9422 17.6854L66.9263 15.9626C65.9411 16.5436 64.9957 17.4744 64.0778 18.6833L65.6707 19.8927ZM67.9327 17.6909C68.6918 17.2544 69.2972 17.088 69.7703 17.088V15.088C68.8353 15.088 67.8834 15.4122 66.9358 15.9571L67.9327 17.6909ZM69.7703 17.088C70.3094 17.088 70.5302 17.2221 70.6231 17.3151C70.7161 17.4081 70.8503 17.6288 70.8503 18.168H72.8503C72.8503 17.3205 72.6377 16.5012 72.0374 15.9009C71.437 15.3005 70.6177 15.088 69.7703 15.088V17.088ZM70.8503 18.168C70.8503 18.8789 70.64 20.2843 70.1687 22.4692L72.1238 22.8908C72.5912 20.7237 72.8503 19.1211 72.8503 18.168H70.8503ZM70.1693 22.4666C69.7689 24.2999 69.5383 25.6352 69.5383 26.36H71.5383C71.5383 25.8901 71.7129 24.7721 72.1232 22.8934L70.1693 22.4666ZM69.5383 26.36C69.5383 26.8777 69.6267 27.4464 69.9606 27.907C70.3378 28.4272 70.8999 28.64 71.4663 28.64V26.64C71.4259 26.64 71.4383 26.6332 71.478 26.6514C71.5232 26.6722 71.5597 26.7053 71.5799 26.733C71.5956 26.7548 71.5837 26.7488 71.5683 26.6851C71.5527 26.6208 71.5383 26.5161 71.5383 26.36H69.5383ZM71.4663 28.64C72.2705 28.64 73.0079 28.1765 73.6346 27.6194L72.3059 26.1246C71.7806 26.5915 71.5153 26.64 71.4663 26.64V28.64ZM73.6363 27.6179C74.2889 27.0352 75.1155 26.1371 76.1053 24.9536L74.5712 23.6704C73.5984 24.8336 72.8462 25.6421 72.3042 26.1261L73.6363 27.6179ZM76.0975 24.9628C76.1593 24.8907 76.1979 24.8682 76.2066 24.8638C76.2108 24.8616 76.2105 24.8622 76.2068 24.8631C76.203 24.8641 76.2008 24.864 76.2023 24.864V22.864C75.5245 22.864 74.9775 23.1963 74.579 23.6612L76.0975 24.9628ZM66.6983 3.088C66.0153 3.088 65.5529 3.56242 65.2976 3.89429C65.0081 4.27065 64.745 4.77686 64.4973 5.36236L66.3392 6.14164C66.5608 5.6178 66.7457 5.29201 66.8829 5.11371C66.9503 5.02608 66.9807 5.00787 66.9669 5.01731C66.9482 5.03012 66.8534 5.088 66.6983 5.088V3.088ZM64.5 5.35591C63.9982 6.51933 63.5237 8.06465 63.0696 9.96788L65.0149 10.4321C65.4568 8.58068 65.8997 7.16067 66.3365 6.14809L64.5 5.35591ZM63.0677 9.97596C62.6324 11.8693 62.275 13.9294 61.9941 16.1548L63.9784 16.4052C64.2522 14.2359 64.5988 12.2427 65.0168 10.424L63.0677 9.97596ZM63.7484 16.9273C65.1286 15.3023 66.2654 13.5305 67.157 11.6137L65.3435 10.7703C64.5284 12.5228 63.4892 14.143 62.2241 15.6327L63.7484 16.9273ZM67.1529 11.6223C68.0698 9.69917 68.5623 7.88588 68.5623 6.2H66.5623C66.5623 7.50079 66.1801 9.01549 65.3476 10.7617L67.1529 11.6223ZM68.5623 6.2C68.5623 5.46906 68.4859 4.79273 68.2629 4.25125L66.4136 5.01275C66.4893 5.1966 66.5623 5.5656 66.5623 6.2H68.5623ZM68.2629 4.25125C68.035 3.69774 67.5483 3.088 66.6983 3.088V5.088C66.6565 5.088 66.6038 5.08076 66.5476 5.05999C66.4915 5.03928 66.4482 5.01109 66.4186 4.98594C66.3651 4.94049 66.3767 4.92315 66.4136 5.01275L68.2629 4.25125ZM75.2728 29.72L76.0452 29.0849L76.0452 29.0849L75.2728 29.72ZM75.2728 21.112L76.1596 21.5741L76.1622 21.5691L75.2728 21.112ZM78.4088 17.432L78.9849 18.2493L78.9875 18.2475L78.4088 17.432ZM83.5288 16.312L82.7394 16.9259L82.7776 16.9751L82.8216 17.0191L83.5288 16.312ZM83.9448 17.272L82.9696 17.4936L83.1836 18.435L84.1319 18.2543L83.9448 17.272ZM86.4408 21.464L87.4214 21.6601L87.4232 21.6505L86.4408 21.464ZM85.9288 27.352L85.1394 27.9659L85.1595 27.9918L85.1813 28.0164L85.9288 27.352ZM88.0408 26.872L88.7051 27.6194L88.7127 27.6127L88.7202 27.6058L88.0408 26.872ZM90.3768 24.312L89.6174 23.6612L89.6097 23.6704L90.3768 24.312ZM91.8808 24.248L91.017 24.7519L91.0321 24.7778L91.0487 24.8027L91.8808 24.248ZM91.5288 27.288L90.7719 26.6344L90.7604 26.6477L90.7494 26.6614L91.5288 27.288ZM88.7448 30.04L89.3503 30.8358L89.3503 30.8358L88.7448 30.04ZM83.9448 30.456L83.2963 31.2172L83.3114 31.2301L83.3269 31.2423L83.9448 30.456ZM82.6328 28.472L83.5739 28.1341L82.8736 26.1831L81.7825 27.9456L82.6328 28.472ZM80.9368 27.096L80.1441 26.4863L80.1441 26.4863L80.9368 27.096ZM81.8648 24.888L82.8436 25.0929L82.8451 25.0851L81.8648 24.888ZM83.0488 19L84.0291 19.1971L84.2758 17.9705L83.0249 18.0003L83.0488 19ZM80.5528 20.024L81.2035 20.7833L81.2053 20.7818L80.5528 20.024ZM78.7608 22.584L79.6827 22.9712L79.6827 22.9712L78.7608 22.584ZM78.4728 27.448L77.6919 28.0727L77.7042 28.0881L77.7171 28.1029L78.4728 27.448ZM78.4408 30.16C77.3952 30.16 76.631 29.7974 76.0452 29.0849L74.5003 30.3551C75.4932 31.5626 76.841 32.16 78.4408 32.16V30.16ZM76.0452 29.0849C75.4371 28.3454 75.0888 27.3298 75.0888 25.944H73.0888C73.0888 27.6729 73.5297 29.1746 74.5003 30.3551L76.0452 29.0849ZM75.0888 25.944C75.0888 24.3984 75.4445 22.9462 76.1596 21.5741L74.3859 20.6499C73.5223 22.3071 73.0888 24.0763 73.0888 25.944H75.0888ZM76.1622 21.5691C76.8841 20.1643 77.8265 19.0659 78.9849 18.2493L77.8326 16.6147C76.3883 17.6328 75.2401 18.9877 74.3833 20.6549L76.1622 21.5691ZM78.9875 18.2475C80.1591 17.416 81.3572 17.024 82.6008 17.024V15.024C80.9003 15.024 79.3037 15.5706 77.83 16.6165L78.9875 18.2475ZM82.6008 17.024C82.6848 17.024 82.7506 17.0283 82.8004 17.0345C82.8506 17.0407 82.8782 17.0479 82.8884 17.0511C82.9115 17.0582 82.8259 17.0371 82.7394 16.9259L84.3181 15.6981C83.8616 15.1111 83.1152 15.024 82.6008 15.024V17.024ZM82.8216 17.0191C82.7877 16.9852 82.8035 16.986 82.8432 17.0776C82.8807 17.1641 82.9252 17.2983 82.9696 17.4936L84.9199 17.0504C84.8056 16.5476 84.6179 15.987 84.2359 15.6049L82.8216 17.0191ZM84.1319 18.2543C84.5137 18.1816 84.9202 18.144 85.3528 18.144V16.144C84.804 16.144 84.2718 16.1917 83.7576 16.2897L84.1319 18.2543ZM85.3528 18.144C85.5578 18.144 85.7056 18.1626 85.8071 18.1868C85.9083 18.2109 85.9451 18.236 85.9475 18.2377C85.9481 18.2382 85.9425 18.2341 85.9345 18.2247C85.9265 18.2151 85.9204 18.205 85.9166 18.1969C85.9086 18.1798 85.9208 18.1935 85.9208 18.264H87.9208C87.9208 17.6278 87.6795 17.0171 87.11 16.6103C86.6025 16.2478 85.9643 16.144 85.3528 16.144V18.144ZM85.9208 18.264C85.9208 18.5973 85.7844 19.56 85.4583 21.2775L87.4232 21.6505C87.7371 19.9973 87.9208 18.8267 87.9208 18.264H85.9208ZM85.4602 21.2679C84.9707 23.715 84.7048 25.5123 84.7048 26.584H86.7048C86.7048 25.7357 86.9294 24.1196 87.4213 21.6601L85.4602 21.2679ZM84.7048 26.584C84.7048 27.056 84.8159 27.55 85.1394 27.9659L86.7181 26.7381C86.728 26.7508 86.7262 26.7546 86.7208 26.736C86.7146 26.715 86.7048 26.6675 86.7048 26.584H84.7048ZM85.1813 28.0164C85.541 28.421 86.026 28.64 86.5688 28.64V26.64C86.5675 26.64 86.5735 26.6399 86.5851 26.6423C86.597 26.6447 86.6116 26.6491 86.6271 26.6561C86.6611 26.6714 86.6771 26.6887 86.6762 26.6876L85.1813 28.0164ZM86.5688 28.64C87.3604 28.64 88.0905 28.1658 88.7051 27.6194L87.3764 26.1246C87.1277 26.3457 86.9287 26.4829 86.7782 26.5614C86.626 26.6408 86.5624 26.64 86.5688 26.64V28.64ZM88.7202 27.6058C89.3442 27.028 90.1557 26.1351 91.1438 24.9536L89.6097 23.6704C88.6352 24.8356 87.8893 25.6494 87.3613 26.1382L88.7202 27.6058ZM91.136 24.9628C91.1978 24.8907 91.2364 24.8682 91.2451 24.8638C91.2493 24.8616 91.249 24.8622 91.2453 24.8631C91.2415 24.8641 91.2393 24.864 91.2408 24.864V22.864C90.563 22.864 90.016 23.1963 89.6175 23.6612L91.136 24.9628ZM91.2408 24.864C91.2195 24.864 91.1603 24.8571 91.0943 24.8175C91.0313 24.7797 91.0109 24.7415 91.017 24.7519L92.7445 23.7441C92.431 23.2066 91.9026 22.864 91.2408 22.864V24.864ZM91.0487 24.8027C91.0705 24.8354 91.1368 24.968 91.1368 25.304H93.1368C93.1368 24.744 93.0323 24.1726 92.7128 23.6933L91.0487 24.8027ZM91.1368 25.304C91.1368 26.0076 90.9701 26.405 90.7719 26.6344L92.2856 27.9416C92.8981 27.2324 93.1368 26.3071 93.1368 25.304H91.1368ZM90.7494 26.6614C89.919 27.6943 89.0481 28.5526 88.1392 29.2442L89.3503 30.8358C90.4041 30.034 91.3892 29.0577 92.3081 27.9146L90.7494 26.6614ZM88.1392 29.2442C87.2725 29.9036 86.5309 30.16 85.8968 30.16V32.16C87.0973 32.16 88.2543 31.6697 89.3503 30.8358L88.1392 29.2442ZM85.8968 30.16C85.435 30.16 84.9986 30.0123 84.5626 29.6697L83.3269 31.2423C84.0856 31.8384 84.9505 32.16 85.8968 32.16V30.16ZM84.5932 29.6948C84.1709 29.335 83.8237 28.8298 83.5739 28.1341L81.6916 28.8099C82.0392 29.7782 82.5666 30.5956 83.2963 31.2172L84.5932 29.6948ZM81.7825 27.9456C80.8029 29.528 79.6906 30.16 78.4408 30.16V32.16C80.5616 32.16 82.2439 31 83.483 28.9984L81.7825 27.9456ZM79.5928 28.928C80.502 28.928 81.2096 28.3815 81.7294 27.7057L80.1441 26.4863C79.8106 26.9199 79.6222 26.928 79.5928 26.928V28.928ZM81.7294 27.7057C82.2734 26.9985 82.6307 26.1099 82.8435 25.0929L80.886 24.6831C80.7148 25.5008 80.4535 26.0842 80.1441 26.4863L81.7294 27.7057ZM82.8451 25.0851L84.0291 19.1971L82.0684 18.8029L80.8844 24.6909L82.8451 25.0851ZM83.0249 18.0003C81.8676 18.0278 80.8192 18.4749 79.9002 19.2662L81.2053 20.7818C81.8223 20.2505 82.4379 20.0148 83.0726 19.9997L83.0249 18.0003ZM79.902 19.2647C79.0181 20.0224 78.3364 21.0119 77.8388 22.1968L79.6827 22.9712C80.0811 22.0228 80.5941 21.3056 81.2035 20.7833L79.902 19.2647ZM77.8388 22.1968C77.3376 23.3901 77.0888 24.6528 77.0888 25.976H79.0888C79.0888 24.9099 79.2879 23.9113 79.6827 22.9712L77.8388 22.1968ZM77.0888 25.976C77.0888 26.7348 77.2301 27.4954 77.6919 28.0727L79.2536 26.8233C79.2034 26.7606 79.0888 26.5399 79.0888 25.976H77.0888ZM77.7171 28.1029C78.2063 28.6674 78.8687 28.928 79.5928 28.928V26.928C79.3782 26.928 79.2939 26.8686 79.2284 26.7931L77.7171 28.1029ZM108.672 24.248L107.808 24.7519L107.823 24.7778L107.84 24.8027L108.672 24.248ZM108.32 27.288L107.563 26.6344L107.554 26.6445L107.546 26.6548L108.32 27.288ZM105.408 30.104L105.991 30.9165L105.991 30.9165L105.408 30.104ZM97.952 29.752L98.6354 29.022L98.6354 29.022L97.952 29.752ZM97.728 24.216L98.1191 25.1363L98.1244 25.1341L97.728 24.216ZM99.744 22.936L100.486 23.6069L100.493 23.5984L100.501 23.5896L99.744 22.936ZM100.096 20.376L99.3066 20.9899L99.3268 21.0158L99.3486 21.0404L100.096 20.376ZM97.6 21.336L96.8366 20.6901L96.8317 20.6958L96.8269 20.7017L97.6 21.336ZM95.68 24.568L96.5888 24.9852L96.5914 24.9796L95.68 24.568ZM94.272 28.6L93.3009 28.361L93.2983 28.3721L94.272 28.6ZM93.44 30.648L92.6902 29.9864L92.6874 29.9895L93.44 30.648ZM90.528 30.456L89.6738 30.9759L89.6872 30.998L89.7018 31.0193L90.528 30.456ZM89.92 28.216L88.9256 28.3218L88.9256 28.3218L89.92 28.216ZM90.752 13.528L89.7699 13.3398L89.7688 13.3455L90.752 13.528ZM93.728 4.568L92.8495 4.09022L92.848 4.09297L93.728 4.568ZM100.832 2.2L100.013 2.77346L100.021 2.7852L100.03 2.7967L100.832 2.2ZM99.872 12.184L100.75 12.6634L100.751 12.66L99.872 12.184ZM93.728 20.28L92.9911 19.604L92.7502 19.8667L92.7297 20.2224L93.728 20.28ZM93.632 23.704H92.632L94.5655 24.0625L93.632 23.704ZM97.152 17.912L97.8223 18.6541L97.8288 18.6482L97.152 17.912ZM103.424 17.176L102.674 17.8376L102.68 17.8437L102.685 17.8498L103.424 17.176ZM103.52 23.096L104.374 23.6159L103.52 23.096ZM100.448 25.72L99.9801 24.8362L99.3552 25.1671L99.4588 25.8665L100.448 25.72ZM101.216 27.128L100.568 27.8899L100.589 27.9072L100.61 27.9234L101.216 27.128ZM104.736 26.872L104.098 26.1016L104.098 26.1016L104.736 26.872ZM107.168 24.312L106.409 23.6612L106.402 23.6691L107.168 24.312ZM96.512 5.752L97.4302 6.1481L97.433 6.14164L96.512 5.752ZM95.136 10.2L94.1633 9.96787L94.1614 9.97596L95.136 10.2ZM94.08 16.28L93.0879 16.1548L92.6671 19.4883L94.8422 16.9273L94.08 16.28ZM97.344 11.192L96.4413 10.7616L96.4373 10.7703L97.344 11.192ZM98.432 4.632L99.3567 4.25125L99.3567 4.25125L98.432 4.632ZM108.032 24.864C108.011 24.864 107.952 24.8571 107.886 24.8175C107.823 24.7797 107.802 24.7415 107.808 24.7519L109.536 23.7441C109.222 23.2066 108.694 22.864 108.032 22.864V24.864ZM107.84 24.8027C107.862 24.8354 107.928 24.968 107.928 25.304H109.928C109.928 24.744 109.824 24.1726 109.504 23.6933L107.84 24.8027ZM107.928 25.304C107.928 26.0076 107.761 26.405 107.563 26.6344L109.077 27.9416C109.689 27.2324 109.928 26.3071 109.928 25.304H107.928ZM107.546 26.6548C106.628 27.7767 105.72 28.6497 104.825 29.2915L105.991 30.9165C107.059 30.1503 108.092 29.146 109.094 27.9212L107.546 26.6548ZM104.825 29.2915C104.033 29.8599 103.08 30.16 101.92 30.16V32.16C103.448 32.16 104.821 31.7561 105.991 30.9165L104.825 29.2915ZM101.92 30.16C100.478 30.16 99.4176 29.7542 98.6354 29.022L97.2686 30.482C98.4918 31.6271 100.076 32.16 101.92 32.16V30.16ZM98.6354 29.022C97.8627 28.2985 97.448 27.3294 97.448 26.008H95.448C95.448 27.8012 96.036 29.3281 97.2686 30.482L98.6354 29.022ZM97.448 26.008C97.448 25.7715 97.5053 25.6242 97.5817 25.5172C97.6633 25.4031 97.8177 25.2644 98.1191 25.1363L97.3369 23.2957C96.7849 23.5302 96.2994 23.8716 95.9543 24.3548C95.604 24.8451 95.448 25.4125 95.448 26.008H97.448ZM98.1244 25.1341C99.1157 24.706 99.9397 24.2102 100.486 23.6069L99.0025 22.2651C98.7376 22.5578 98.2177 22.9153 97.3316 23.2979L98.1244 25.1341ZM100.501 23.5896C101.074 22.926 101.352 22.124 101.352 21.24H99.352C99.352 21.6786 99.2247 22.0074 98.9872 22.2824L100.501 23.5896ZM101.352 21.24C101.352 20.729 101.241 20.1589 100.843 19.7116L99.3486 21.0404C99.3212 21.0096 99.3212 20.9932 99.3292 21.0201C99.3382 21.0504 99.352 21.1189 99.352 21.24H101.352ZM100.885 19.7621C100.555 19.3368 100.076 19.088 99.52 19.088V21.088C99.4968 21.088 99.4482 21.0821 99.3928 21.0544C99.3385 21.0273 99.3114 20.9961 99.3066 20.9899L100.885 19.7621ZM99.52 19.088C98.4736 19.088 97.5755 19.8168 96.8366 20.6901L98.3634 21.9819C99.0325 21.1912 99.4144 21.088 99.52 21.088V19.088ZM96.8269 20.7017C96.0731 21.6204 95.3904 22.7796 94.7686 24.1564L96.5914 24.9796C97.1642 23.7111 97.7616 22.7156 98.3731 21.9703L96.8269 20.7017ZM94.7712 24.1508C94.1476 25.5093 93.6574 26.9129 93.301 28.361L95.243 28.839C95.5692 27.5137 96.0177 26.2294 96.5888 24.9852L94.7712 24.1508ZM93.2983 28.3721C93.0679 29.3568 92.8334 29.824 92.6902 29.9864L94.1898 31.3096C94.6866 30.7466 95.0068 29.8485 95.2457 28.8279L93.2983 28.3721ZM92.6874 29.9895C92.6523 30.0296 92.5078 30.16 92 30.16V32.16C92.8148 32.16 93.6303 31.9491 94.1926 31.3065L92.6874 29.9895ZM92 30.16C91.6066 30.16 91.4552 30.0408 91.3542 29.8927L89.7018 31.0193C90.2408 31.8099 91.0707 32.16 92 32.16V30.16ZM91.3822 29.9361C91.1978 29.6332 91.0155 29.0609 90.9144 28.1102L88.9256 28.3218C89.0378 29.3765 89.2608 30.2975 89.6738 30.9759L91.3822 29.9361ZM90.9144 28.1102C90.8135 27.1614 90.76 25.7319 90.76 23.8H88.76C88.76 25.7507 88.8132 27.2652 88.9256 28.3218L90.9144 28.1102ZM90.76 23.8C90.76 20.5818 91.0839 17.2191 91.7352 13.7105L89.7688 13.3455C89.0974 16.9623 88.76 20.4476 88.76 23.8H90.76ZM91.7341 13.7162C92.4034 10.2233 93.3679 7.34014 94.608 5.04303L92.848 4.09297C91.4854 6.61719 90.4659 9.70732 89.7699 13.3398L91.7341 13.7162ZM94.6065 5.04577C95.8518 2.75601 97.1627 1.92 98.464 1.92V-0.0800018C96.096 -0.0800018 94.2495 1.51599 92.8495 4.09023L94.6065 5.04577ZM98.464 1.92C99.096 1.92 99.589 2.16806 100.013 2.77346L101.651 1.62654C100.88 0.525269 99.7946 -0.0800018 98.464 -0.0800018V1.92ZM100.03 2.7967C100.486 3.41121 100.76 4.27116 100.76 5.464H102.76C102.76 3.96884 102.415 2.65279 101.634 1.6033L100.03 2.7967ZM100.76 5.464C100.76 7.41873 100.19 9.496 98.9926 11.708L100.751 12.66C102.071 10.2213 102.76 7.8186 102.76 5.464H100.76ZM98.9944 11.7046C97.7905 13.9084 95.8021 16.5393 92.9911 19.604L94.4649 20.956C97.3285 17.834 99.4362 15.0676 100.75 12.6634L98.9944 11.7046ZM92.7297 20.2224C92.6645 21.3519 92.632 22.5125 92.632 23.704H94.632C94.632 22.5488 94.6635 21.4267 94.7263 20.3376L92.7297 20.2224ZM94.5655 24.0625C95.5635 21.4636 96.6661 19.6984 97.8223 18.6541L96.4817 17.1699C94.9926 18.5149 93.7485 20.611 92.6985 23.3455L94.5655 24.0625ZM97.8288 18.6482C99.0661 17.5106 100.071 17.088 100.864 17.088V15.088C99.353 15.088 97.8832 15.8814 96.4752 17.1758L97.8288 18.6482ZM100.864 17.088C101.677 17.088 102.245 17.351 102.674 17.8376L104.174 16.5144C103.323 15.5503 102.185 15.088 100.864 15.088V17.088ZM102.685 17.8498C103.163 18.3742 103.416 19.0231 103.416 19.864H105.416C105.416 18.5716 105.007 17.4284 104.163 16.5022L102.685 17.8498ZM103.416 19.864C103.416 20.858 103.166 21.7549 102.666 22.5761L104.374 23.6159C105.069 22.4745 105.416 21.2166 105.416 19.864H103.416ZM102.666 22.5761C102.194 23.3513 101.336 24.1183 99.9801 24.8362L100.916 26.6038C102.461 25.7857 103.651 24.8034 104.374 23.6159L102.666 22.5761ZM99.4588 25.8665C99.5781 26.6718 99.9491 27.3636 100.568 27.8899L101.864 26.3661C101.63 26.1671 101.489 25.9202 101.437 25.5735L99.4588 25.8665ZM100.61 27.9234C101.249 28.4107 102.001 28.64 102.816 28.64V26.64C102.393 26.64 102.079 26.528 101.822 26.3326L100.61 27.9234ZM102.816 28.64C103.757 28.64 104.615 28.2698 105.374 27.6424L104.098 26.1016C103.619 26.4982 103.198 26.64 102.816 26.64V28.64ZM105.374 27.6424C106.064 27.071 106.921 26.1612 107.934 24.9549L106.402 23.6691C105.409 24.8521 104.645 25.649 104.098 26.1016L105.374 27.6424ZM107.927 24.9628C107.989 24.8907 108.028 24.8682 108.036 24.8638C108.041 24.8616 108.04 24.8622 108.037 24.8631C108.033 24.8641 108.031 24.864 108.032 24.864V22.864C107.354 22.864 106.807 23.1963 106.409 23.6612L107.927 24.9628ZM97.792 3.088C97.1091 3.088 96.6467 3.56242 96.3914 3.89429C96.1019 4.27065 95.8387 4.77686 95.591 5.36236L97.433 6.14164C97.6546 5.6178 97.8395 5.29201 97.9766 5.11371C98.044 5.02608 98.0745 5.00787 98.0607 5.01731C98.042 5.03012 97.9471 5.088 97.792 5.088V3.088ZM95.5938 5.35591C95.0919 6.51933 94.6175 8.06465 94.1633 9.96788L96.1087 10.4321C96.5505 8.58068 96.9934 7.16067 97.4302 6.14809L95.5938 5.35591ZM94.1614 9.97596C93.7262 11.8693 93.3687 13.9294 93.0879 16.1548L95.0721 16.4052C95.3459 14.2359 95.6925 12.2427 96.1106 10.424L94.1614 9.97596ZM94.8422 16.9273C96.2224 15.3023 97.3592 13.5305 98.2507 11.6137L96.4373 10.7703C95.6222 12.5228 94.583 14.143 93.3178 15.6327L94.8422 16.9273ZM98.2467 11.6223C99.1635 9.69917 99.656 7.88588 99.656 6.2H97.656C97.656 7.50079 97.2738 9.01549 96.4413 10.7617L98.2467 11.6223ZM99.656 6.2C99.656 5.46906 99.5796 4.79273 99.3567 4.25125L97.5073 5.01275C97.583 5.1966 97.656 5.5656 97.656 6.2H99.656ZM99.3567 4.25125C99.1288 3.69774 98.6421 3.088 97.792 3.088V5.088C97.7502 5.088 97.6975 5.08076 97.6414 5.05999C97.5853 5.03928 97.5419 5.01109 97.5124 4.98594C97.4589 4.94049 97.4704 4.92315 97.5073 5.01275L99.3567 4.25125ZM108.525 30.232L107.934 31.039L107.945 31.0471L107.956 31.0549L108.525 30.232ZM106.541 27.736L107.457 27.3352L107.457 27.3352L106.541 27.736ZM106.765 20.12L105.864 19.6848L105.861 19.6913L106.765 20.12ZM109.261 17.144L109.819 17.9735L109.831 17.9656L109.261 17.144ZM116.013 17.016L115.431 17.8297L115.438 17.8344L115.444 17.8389L116.013 17.016ZM117.773 27.128L118.67 27.5691L118.673 27.5632L117.773 27.128ZM115.245 30.104L115.803 30.9334L115.807 30.9309L115.245 30.104ZM113.933 26.52L113.094 25.9758L113.088 25.9839L113.083 25.9921L113.933 26.52ZM114.061 20.408L113.247 20.9892L113.247 20.9892L114.061 20.408ZM110.605 20.696L109.766 20.1518L109.762 20.1576L110.605 20.696ZM110.509 26.84L109.705 27.4352L109.705 27.4352L110.509 26.84ZM111.757 30.16C110.668 30.16 109.797 29.8952 109.093 29.4091L107.956 31.0549C109.044 31.8061 110.327 32.16 111.757 32.16V30.16ZM109.115 29.425C108.387 28.8926 107.836 28.2027 107.457 27.3352L105.624 28.1368C106.141 29.3173 106.912 30.2914 107.934 31.039L109.115 29.425ZM107.457 27.3352C107.067 26.4438 106.868 25.4824 106.868 24.44H104.868C104.868 25.7443 105.118 26.9802 105.624 28.1368L107.457 27.3352ZM106.868 24.44C106.868 22.9428 107.144 21.6532 107.668 20.5487L105.861 19.6913C105.191 21.1042 104.868 22.6945 104.868 24.44H106.868ZM107.665 20.5552C108.217 19.4137 108.939 18.5664 109.819 17.9734L108.702 16.3146C107.492 17.1296 106.55 18.2663 105.864 19.6848L107.665 20.5552ZM109.831 17.9656C110.704 17.3592 111.678 17.056 112.781 17.056V15.056C111.28 15.056 109.907 15.4781 108.69 16.3224L109.831 17.9656ZM112.781 17.056C113.862 17.056 114.728 17.3277 115.431 17.8297L116.594 16.2023C115.505 15.4243 114.217 15.056 112.781 15.056V17.056ZM115.444 17.8389C116.183 18.349 116.737 19.0224 117.112 19.8808L118.945 19.0792C118.424 17.8896 117.634 16.9203 116.581 16.1931L115.444 17.8389ZM117.112 19.8808C117.502 20.7722 117.701 21.7336 117.701 22.776H119.701C119.701 21.4717 119.451 20.2358 118.945 19.0792L117.112 19.8808ZM117.701 22.776C117.701 24.2678 117.417 25.5664 116.872 26.6928L118.673 27.5632C119.366 26.1296 119.701 24.5268 119.701 22.776H117.701ZM116.875 26.6869C116.326 27.8041 115.593 28.6575 114.682 29.2771L115.807 30.9309C117.029 30.0998 117.982 28.9693 118.67 27.5691L116.875 26.6869ZM114.686 29.2746C113.808 29.8656 112.841 30.16 111.757 30.16V32.16C113.232 32.16 114.59 31.7504 115.803 30.9334L114.686 29.2746ZM112.109 28.704C113.277 28.704 114.167 28.0368 114.782 27.0479L113.083 25.9921C112.717 26.5819 112.39 26.704 112.109 26.704V28.704ZM114.771 27.0642C115.435 26.0417 115.701 24.6647 115.701 23.064H113.701C113.701 24.4926 113.454 25.4196 113.094 25.9758L114.771 27.0642ZM115.701 23.064C115.701 21.7971 115.475 20.6679 114.874 19.8268L113.247 20.9892C113.499 21.3428 113.701 21.9842 113.701 23.064H115.701ZM114.874 19.8268C114.308 19.0343 113.52 18.512 112.525 18.512V20.512C112.724 20.512 112.959 20.587 113.247 20.9892L114.874 19.8268ZM112.525 18.512C111.339 18.512 110.414 19.1516 109.766 20.1518L111.443 21.2402C111.819 20.6617 112.174 20.512 112.525 20.512V18.512ZM109.762 20.1576C109.12 21.1623 108.869 22.5417 108.869 24.152H110.869C110.869 22.6903 111.108 21.7657 111.447 21.2344L109.762 20.1576ZM108.869 24.152C108.869 25.4477 109.089 26.6035 109.705 27.4352L111.312 26.2448C111.075 25.9245 110.869 25.2883 110.869 24.152H108.869ZM109.705 27.4352C110.294 28.2307 111.11 28.704 112.109 28.704V26.704C111.827 26.704 111.576 26.6013 111.312 26.2448L109.705 27.4352Z" fill="gray"/>
</svg>
